<svg width="60" height="60" viewBox="0 0 60 60" fill="none" xmlns="http://www.w3.org/2000/svg">
<path d="M46.4062 32.422C47.1095 31.25 47.5 30 47.5 28.5155C47.5 25.078 44.5312 21.875 40.7812 21.875H37.8905C38.2813 20.8594 38.5938 19.6875 38.5938 18.2031C38.5938 12.5 35.625 10 31.172 10C26.328 10 26.6405 17.4219 25.547 18.5156C23.75 20.3125 21.6406 23.75 20.1562 25H12.5C11.0938 25 10 26.172 10 27.5V46.25C10 47.6562 11.0938 48.75 12.5 48.75H17.5C18.5938 48.75 19.6094 47.9688 19.8438 46.953C23.3594 47.0313 25.7812 50 33.75 50C34.375 50 35 50 35.547 50C41.5625 50 44.2187 46.953 44.297 42.578C45.3905 41.172 45.9375 39.2188 45.703 37.3438C46.4845 35.9375 46.7188 34.2187 46.4062 32.422ZM41.5625 36.6405C42.578 38.2813 41.6405 40.4687 40.4688 41.172C41.0938 44.922 39.0625 46.25 36.328 46.25H33.3595C27.8125 46.25 24.1406 43.3595 20 43.3595V28.75H20.7812C23.0469 28.75 26.0938 23.2812 28.203 21.1719C30.3905 18.9844 29.6875 15.2344 31.172 13.75C34.8437 13.75 34.8438 16.3281 34.8438 18.2031C34.8438 21.25 32.6562 22.6562 32.6562 25.625H40.7812C42.422 25.625 43.672 27.1095 43.75 28.5938C43.75 30 42.7345 31.4845 41.953 31.4845C43.047 32.6562 43.2812 35.078 41.5625 36.6405ZM16.875 43.75C16.875 44.8438 16.0156 45.625 15 45.625C13.9062 45.625 13.125 44.8438 13.125 43.75C13.125 42.7345 13.9062 41.875 15 41.875C16.0156 41.875 16.875 42.7345 16.875 43.75Z" fill="#323232"/>
</svg>
