<svg width="60" height="60" viewBox="0 0 60 60" fill="none" xmlns="http://www.w3.org/2000/svg">
<path d="M46.4062 27.6562C46.7188 25.8595 46.4845 24.1406 45.703 22.7344C45.9375 20.8594 45.3905 18.9062 44.297 17.5C44.2187 13.125 41.5625 10 35.547 10C35 10 34.375 10.0781 33.75 10.0781C25.703 10.0781 23.125 13.125 20 13.125H19.1406C18.6719 12.8125 18.125 12.5 17.5 12.5H12.5C11.0938 12.5 10 13.6719 10 15V33.75C10 35.1562 11.0938 36.25 12.5 36.25H17.5C18.3594 36.25 19.2188 35.7812 19.6094 35H20.1562C21.6406 36.328 23.75 39.7655 25.547 41.5625C26.6405 42.6562 26.328 50 31.172 50C35.625 50 38.5938 47.578 38.5938 41.875C38.5938 40.3905 38.2813 39.2188 37.8905 38.203H40.7812C44.5312 38.203 47.5 35 47.5 31.5625C47.5 30 47.1095 28.828 46.4062 27.6562ZM15 33.125C13.9062 33.125 13.125 32.3438 13.125 31.25C13.125 30.2345 13.9062 29.375 15 29.375C16.0156 29.375 16.875 30.2345 16.875 31.25C16.875 32.3438 16.0156 33.125 15 33.125ZM40.7812 34.453H32.6562C32.6562 37.422 34.8438 38.828 34.8438 41.875C34.8438 43.75 34.8437 46.25 31.172 46.25C29.6875 44.8438 30.3905 41.0938 28.203 38.9062C26.0938 36.797 23.0469 31.25 20.7812 31.25H20V16.7188C24.1406 16.7188 27.8125 13.8281 33.3595 13.8281H36.328C39.0625 13.8281 41.0938 15.1562 40.4688 18.9062C41.6405 19.6094 42.578 21.7969 41.5625 23.4375C43.2812 25 43.047 27.422 41.953 28.5938C42.7345 28.5938 43.75 30.078 43.75 31.4845C43.672 32.9687 42.422 34.453 40.7812 34.453Z" fill="#323232"/>
</svg>
